<?xml version="1.0" encoding="UTF-8" standalone="no"?>
<!-- Created with Inkscape (http://www.inkscape.org/) -->

<svg
   width="210mm"
   height="297mm"
   viewBox="0 0 210 297"
   version="1.1"
   id="svg1"
   xml:space="preserve"
   inkscape:version="1.4.4 (dcaf3e7d9e, 2026-05-05)"
   sodipodi:docname="cat-icon.svg"
   xmlns:inkscape="http://www.inkscape.org/namespaces/inkscape"
   xmlns:sodipodi="http://sodipodi.sourceforge.net/DTD/sodipodi-0.dtd"
   xmlns="http://www.w3.org/2000/svg"
   xmlns:svg="http://www.w3.org/2000/svg"><sodipodi:namedview
     id="namedview1"
     pagecolor="#ffffff"
     bordercolor="#000000"
     borderopacity="0.25"
     inkscape:showpageshadow="2"
     inkscape:pageopacity="0.0"
     inkscape:pagecheckerboard="0"
     inkscape:deskcolor="#d1d1d1"
     inkscape:document-units="mm"
     inkscape:zoom="1"
     inkscape:cx="415.5"
     inkscape:cy="603"
     inkscape:window-width="1181"
     inkscape:window-height="933"
     inkscape:window-x="0"
     inkscape:window-y="0"
     inkscape:window-maximized="1"
     inkscape:current-layer="layer1" /><defs
     id="defs1" /><g
     inkscape:label="Layer 1"
     inkscape:groupmode="layer"
     id="layer1"><path
       style="fill:#000000"
       d="m 125.19304,212.99703 c -1.29064,-1.29064 -0.22944,-2.57879 2.49464,-3.02815 14.64705,-1.55814 17.29578,-11.64056 16.95011,-11.95158 -8.10052,-7.41455 0.85764,-1.52782 5.38122,-4.93585 3.85478,-2.81299 3.76897,-6.80796 1.32225,-7.61973 -8.11238,-2.69151 -7.65275,-2.59881 0.83651,-4.56664 1.25238,-0.29031 6.62976,-2.54727 1.10697,-19.60519 -1.36423,-4.21363 -1.3764,-5.28884 -0.10252,-9.0604 4.06039,-12.02161 2.93179,-28.20681 0.58132,-30.14248 -5.20971,-3.65853 -18.32347,6.55928 -22.2815,10.26714 -4.12667,3.86583 -5.18471,4.18127 -9.13407,2.72321 -8.06508,-2.97753 -12.54654,-3.88012 -20.7217,-4.17346 -9.502819,0.24424 -10.470223,-10.77815 -14.515975,-17.82659 -10.719104,-18.564918 -23.353691,24.88896 -27.298549,31.55605 -1.638228,1.09365 -8.168101,9.72537 -7.090562,13.54924 0.215039,0.76313 0.507967,1.85906 0.650951,2.43542 0.354478,1.4283 0.727696,1.57859 1.868768,2.39469 15.172442,10.85134 -12.150109,-0.94042 -3.860638,12.69785 1.413231,2.32512 10.770043,2.1222 3.988934,5.00909 -2.955016,1.21774 -5.742321,8.68665 7.760196,17.77504 1.382448,0.93052 2.781432,1.87534 3.108854,2.09961 0.641202,0.43919 0.778172,1.39908 0.32142,2.25253 -2.852107,5.32918 -17.02514,-15.17906 -21.378915,-18.00906 -0.42177,-0.63133 -2.884838,-2.19887 -6.964507,-1.58924 -5.230106,0.78156 -6.043097,0.63323 -6.043097,-1.10257 0,-1.11955 0.719716,-1.44709 4.497916,-2.04699 2.69406,-0.34148 4.94687,-0.96681 6.319381,-3.56144 0.05592,-0.1643 0.230805,-0.46138 0.388635,-0.66018 7.865604,-9.90771 -12.793431,-17.98812 -12.793431,-18.30446 0,-1.37832 0.903085,-1.69507 3.077211,-1.07933 6.279127,1.46217 11.918821,3.49989 15.780939,-2.94273 1.753446,-3.40562 4.359937,-7.22064 6.491342,-9.50111 5.600523,-5.99226 8.790642,-26.88166 22.048749,-40.56773 11.651937,-5.424233 15.606606,23.17073 23.906968,23.56238 7.58676,-1.6732 19.54886,8.04622 26.32604,2.77486 6.67875,-5.56845 22.10285,-18.8007 28.92307,-8.6715 3.09462,6.27008 2.57878,23.35834 -0.99143,32.84354 -0.5515,1.46519 -0.44159,2.63773 0.90354,8.16865 1.54903,6.36935 2.76433,15.73648 5.64317,19.14375 4.19895,4.9697 13.94661,7.13219 -1.90506,6.60954 -3.60645,-0.11891 -5.11051,5.12755 -4.86222,6.7142 0.076,0.48577 -0.1438,2.14216 0.45663,3.8916 2.92231,8.51467 15.54619,8.28691 -5.52091,6.05215 -1.5901,-0.16867 -2.9879,0.29197 -3.11302,0.21463 -0.12513,-0.0773 -1.07811,0.47807 -2.11773,1.23423 -6.19856,4.50846 -18.65609,8.76077 -20.43982,6.97703 z m -28.295329,-32.6612 c 7.828439,-5.15232 6.433519,0.60693 7.437279,1.86459 5.49602,6.88624 -17.197472,4.55912 -7.437279,-1.86459 z m 26.915179,-3.16889 c -2.59124,-1.04562 -3.26671,-6.23011 -1.32387,-10.16118 2.08691,-4.22258 5.54902,-5.02363 7.26878,-1.68182 2.59466,5.04192 -1.68267,13.5629 -5.94491,11.843 z m -44.808546,-8.6549 c -3.338509,-1.2148 -3.493178,-8.38626 -0.260086,-12.05925 3.411629,-3.87582 7.228392,-1.34556 6.793661,4.50374 -0.33584,4.51873 -3.816747,8.54409 -6.533575,7.55551 z"
       id="path1"
       sodipodi:nodetypes="ssssssssssssssssssssssssssssssssscssssssssssssssssssssssss" /></g></svg>
