<?xml version="1.0" standalone="no"?>
<!DOCTYPE svg PUBLIC "-//W3C//DTD SVG 20010904//EN"
 "http://www.w3.org/TR/2001/REC-SVG-20010904/DTD/svg10.dtd">
<svg version="1.0" xmlns="http://www.w3.org/2000/svg"
 width="820pt" height="769pt" viewBox="0 0 820 769"
 preserveAspectRatio="xMidYMid meet">

<g transform="translate(0.000000,769.000000) scale(0.100000,-0.100000)"
fill="#ff8fbd" stroke="none">
<path d="M3846 7404 c-257 -50 -484 -206 -645 -442 -21 -31 -45 -71 -54 -89
l-17 -32 -50 34 c-53 35 -106 55 -150 55 -30 0 -44 -8 -58 -35 -17 -33 -35
-179 -30 -254 5 -86 21 -109 85 -113 l45 -3 -62 -50 c-107 -87 -124 -144 -57
-185 27 -17 28 -20 11 -20 -45 0 -147 63 -232 144 l-86 83 -34 -71 -34 -71 51
-47 c28 -25 77 -59 108 -75 50 -24 70 -28 144 -28 l87 0 -18 -25 c-37 -53
-132 -132 -185 -156 -74 -32 -140 -32 -183 0 -18 13 -70 70 -116 127 -121 151
-229 251 -301 278 -93 35 -245 27 -328 -15 l-31 -16 47 -42 c45 -40 47 -43 49
-104 l3 -64 39 31 c73 58 163 94 247 99 107 6 122 -4 196 -131 76 -129 127
-176 223 -207 56 -18 86 -22 148 -18 94 6 159 36 234 108 28 27 53 49 54 47 7
-6 -89 -226 -131 -301 -77 -136 -162 -234 -290 -334 l-30 -23 34 18 c59 31
196 174 256 266 64 99 109 192 154 319 35 101 63 158 68 142 2 -6 -6 -53 -18
-105 -42 -188 -36 -372 17 -483 13 -27 21 -53 18 -58 -3 -4 -2 -7 3 -6 4 1 25
-9 45 -22 29 -19 36 -30 32 -45 -11 -37 -66 -126 -105 -172 -22 -24 -49 -63
-60 -85 -15 -30 -24 -38 -37 -33 -40 17 -99 17 -131 0 -50 -25 -85 -109 -85
-205 -1 -41 3 -87 7 -103 l7 -27 -42 6 c-81 12 -105 28 -113 72 -8 48 8 112
42 171 14 24 20 40 14 37 -20 -12 -61 -104 -67 -149 -6 -42 10 -128 24 -125 4
1 28 -2 53 -6 l46 -8 -12 -36 c-8 -23 -10 -45 -4 -59 7 -20 3 -24 -49 -44 -31
-11 -74 -22 -94 -22 -20 -1 -35 -4 -32 -6 3 -3 -21 -11 -53 -17 -58 -12 -58
-12 -93 20 l-35 31 29 -32 28 -32 -37 -15 c-54 -23 -62 -21 -87 27 -19 35 -23
57 -23 140 0 54 -3 88 -7 75 -11 -41 -8 -152 6 -191 8 -21 22 -47 32 -58 20
-22 20 -21 -26 -44 -47 -24 -211 -123 -343 -207 -148 -95 -241 -138 -296 -138
-25 0 -101 7 -169 16 -144 19 -129 25 -222 -97 -68 -89 -90 -129 -90 -163 0
-21 -8 -27 -64 -46 -125 -41 -249 -146 -332 -281 -20 -32 -64 -79 -104 -112
-145 -119 -268 -307 -293 -450 -26 -155 36 -308 193 -473 27 -28 47 -53 45
-56 -2 -2 5 -4 16 -4 19 0 19 2 -6 21 -43 35 -67 128 -73 283 -7 212 36 403
143 628 l53 112 93 55 c122 71 327 173 334 165 3 -3 1 -27 -5 -54 -47 -207
-54 -269 -54 -489 -1 -176 3 -237 17 -305 40 -186 109 -348 185 -432 40 -45
32 -45 222 7 l119 32 12 -31 c7 -17 30 -70 51 -117 l39 -86 -49 -66 c-84 -111
-90 -166 -32 -316 92 -237 320 -471 580 -594 151 -72 257 -100 380 -101 121 0
157 16 203 89 l32 52 70 -24 c38 -14 111 -35 160 -48 l90 -23 1 -138 c1 -265
72 -501 211 -711 95 -144 184 -214 268 -212 l40 1 -47 8 c-59 10 -99 35 -159
97 -92 95 -163 214 -222 373 -56 151 -71 242 -72 422 0 184 12 217 38 106 41
-170 140 -548 144 -545 2 2 -28 134 -67 293 -38 159 -74 306 -79 326 l-9 37
27 -13 c55 -29 196 -66 287 -77 152 -18 330 14 467 83 l39 19 -5 -398 c-3
-310 -7 -410 -19 -453 -40 -148 -131 -246 -251 -270 l-42 -8 36 -1 c20 -1 57
10 86 25 88 43 149 127 183 249 l17 60 7 -56 c9 -75 54 -166 103 -210 41 -37
122 -74 144 -67 7 2 -8 10 -34 17 -60 17 -130 79 -163 143 -14 27 -30 84 -36
127 -13 89 -1 216 57 601 19 124 37 246 40 272 l7 46 142 97 c227 157 368 230
540 281 102 31 238 56 246 47 4 -5 12 -23 18 -41 10 -29 5 -54 -44 -214 -30
-100 -57 -185 -60 -189 -2 -4 -31 -83 -63 -176 -32 -92 -82 -231 -110 -307
-28 -77 -49 -141 -47 -143 1 -2 51 125 111 281 103 271 109 284 141 299 19 9
50 39 70 67 22 30 43 50 55 50 34 0 84 -26 101 -52 48 -73 68 -264 36 -338
-20 -47 -64 -97 -102 -117 -40 -21 -95 -33 -101 -23 -7 12 33 97 75 160 47 70
52 80 46 80 -16 0 -96 -139 -156 -271 -109 -238 -176 -344 -304 -477 -81 -84
-173 -160 -231 -190 -22 -12 -33 -21 -24 -22 58 -1 319 238 411 377 l54 82 18
-72 c23 -88 77 -151 140 -162 104 -20 211 45 265 158 56 121 64 216 42 494 -9
113 -10 177 -3 188 5 11 43 28 92 42 104 30 209 78 289 133 l62 42 44 -41 c52
-48 79 -51 176 -21 257 79 561 430 625 721 25 114 36 132 116 192 126 93 222
213 298 372 103 217 134 357 133 615 0 124 -5 212 -16 267 -12 65 -13 89 -4
113 6 16 14 30 17 30 11 0 201 -167 307 -271 62 -61 137 -140 168 -178 51 -63
55 -73 70 -155 8 -49 15 -104 15 -122 0 -19 4 -34 9 -34 5 0 6 20 3 45 -3 30
-1 45 7 45 6 0 11 4 11 10 0 5 -5 9 -11 7 -6 -1 -14 4 -17 12 -3 8 0 11 7 7
16 -10 14 5 -5 25 -12 13 -12 19 -3 25 7 4 10 3 5 -4 -3 -6 0 -14 8 -19 17
-10 56 -87 86 -171 13 -34 25 -61 27 -59 12 12 -90 237 -107 237 -6 0 -9 3 -7
8 1 4 -10 32 -25 62 -15 30 -43 94 -62 141 -18 48 -58 125 -88 170 -107 164
-196 238 -347 289 -72 25 -76 27 -81 61 -7 42 -7 40 -92 156 -37 51 -77 97
-88 103 -16 8 -47 7 -126 -4 -143 -22 -228 -20 -282 4 -24 11 -145 86 -270
168 -125 82 -251 162 -279 177 l-53 28 34 37 c51 56 70 116 64 203 -3 40 -10
82 -17 92 -10 17 -10 16 -4 -10 14 -53 10 -193 -6 -207 -12 -11 -13 -10 -6 7
4 11 9 49 10 85 l4 65 -8 -60 c-17 -132 -82 -202 -168 -179 -21 6 -21 7 12 50
32 42 55 108 41 121 -3 4 -6 -4 -6 -16 0 -37 -50 -121 -77 -127 -21 -6 -67 -2
-151 13 l-33 5 29 18 c42 26 55 67 50 159 -4 61 -10 88 -30 123 -25 41 -80
101 -121 130 -14 11 9 13 134 12 83 -1 146 2 140 6 -15 9 75 29 164 37 133 11
262 -40 315 -125 16 -26 30 -42 30 -35 0 14 -91 136 -97 129 -3 -2 -26 5 -51
16 -80 34 -187 35 -338 3 -110 -24 -144 -27 -230 -22 -64 4 -119 13 -154 26
-29 11 -57 18 -62 15 -4 -3 -8 -1 -8 5 0 6 -18 15 -41 21 -32 9 -51 8 -96 -5
-30 -9 -56 -15 -58 -13 -1 2 -9 17 -18 34 -24 46 -101 127 -142 149 -29 16
-46 37 -77 99 l-40 79 23 40 c12 22 30 66 40 96 17 55 17 55 28 29 5 -15 18
-53 27 -85 41 -147 184 -347 284 -397 8 -4 6 0 -5 9 -84 67 -188 198 -227 285
-11 25 -35 89 -53 143 -31 89 -33 104 -28 185 3 48 0 122 -6 164 -10 73 -9 79
15 132 14 30 27 72 30 93 4 31 2 28 -11 -15 -8 -29 -22 -67 -32 -85 -14 -27
-17 -29 -20 -12 -2 11 -13 57 -24 102 l-21 82 20 53 c11 29 24 62 27 73 6 19
17 -5 113 -240 11 -27 36 -99 55 -160 56 -179 149 -355 212 -407 62 -49 69
-51 27 -8 -90 93 -157 212 -221 393 -47 134 -43 140 39 60 129 -126 255 -183
404 -183 103 0 137 16 219 106 79 85 96 117 97 179 0 91 -48 141 -200 207
-130 56 -182 56 -309 -1 -106 -48 -167 -59 -211 -41 l-31 13 21 22 c12 13 20
35 20 55 0 28 -11 45 -75 109 -41 41 -75 76 -75 78 0 2 11 3 25 3 41 0 48 30
42 164 -8 183 -28 231 -94 230 -37 -1 -131 -41 -164 -70 -14 -12 -23 -4 -81
74 -149 199 -348 337 -563 390 -105 26 -341 35 -439 16z m438 -29 c87 -23 187
-67 274 -121 91 -57 240 -202 300 -293 l42 -63 -29 -34 c-16 -18 -32 -42 -36
-53 -3 -12 -10 -21 -15 -21 -5 0 -10 -7 -12 -16 -2 -10 -18 6 -45 44 -80 114
-201 233 -278 274 -27 15 -22 10 67 -60 204 -162 337 -403 437 -794 51 -198
67 -344 52 -463 -14 -103 -43 -186 -80 -227 l-26 -29 -3 81 c-1 46 2 89 9 101
6 12 22 62 35 113 l24 91 -4 -110 c-3 -77 -11 -128 -25 -169 -27 -77 -20 -85
9 -9 30 77 37 205 19 341 l-14 107 -6 -100 c-4 -55 -15 -131 -25 -170 l-19
-70 -5 65 c-3 36 -7 -24 -8 -135 -4 -356 -32 -492 -137 -655 -44 -68 -104
-132 -92 -97 4 10 3 16 -2 13 -16 -11 -61 -135 -67 -189 -8 -68 8 -118 47
-152 39 -32 80 -32 136 1 41 24 44 24 34 5 -13 -23 -84 -75 -134 -96 -17 -8
-26 -14 -19 -15 7 0 26 7 42 15 28 15 29 14 35 -17 6 -26 3 -35 -16 -51 -30
-25 -143 -78 -251 -118 -127 -46 -242 -103 -333 -164 -46 -30 -86 -55 -90 -55
-4 0 -5 20 -3 45 3 25 2 45 -3 45 -4 0 -9 -20 -11 -44 l-3 -43 -105 63 c-58
35 -175 93 -260 130 -177 76 -227 103 -288 152 l-43 34 5 67 c3 36 8 105 12
153 l6 86 71 -34 c40 -18 88 -36 107 -39 35 -5 35 -5 -5 8 -107 36 -211 95
-258 146 -101 109 -135 239 -140 538 l-3 182 45 -48 c30 -31 34 -34 12 -8 -41
49 -94 160 -116 247 -9 36 -20 112 -24 170 l-7 105 -23 -97 c-28 -118 -27
-260 3 -318 21 -40 65 -90 80 -90 5 0 -7 16 -27 36 -53 54 -71 115 -65 233 3
54 10 106 16 116 10 17 11 15 12 -20 0 -50 24 -150 55 -238 41 -113 27 -165
-33 -120 -78 58 -117 192 -109 368 7 132 82 445 141 590 40 96 110 231 158
305 l29 45 -31 -37 c-25 -30 -39 -38 -66 -38 -27 0 -36 6 -49 30 -16 30 -15
33 21 93 164 273 418 458 679 496 93 13 360 5 429 -14z m1533 -1079 c61 -69
93 -200 63 -256 -17 -31 -128 -60 -229 -60 -99 0 -188 27 -272 80 -61 40 -144
131 -183 202 l-30 53 30 -20 c93 -61 117 -70 194 -70 69 0 83 4 185 51 171 80
188 82 242 20z m-790 -923 c-2 -1 -23 1 -48 5 l-44 8 -3 58 c-6 90 14 91 60 4
21 -40 36 -73 35 -75z m-1887 67 l0 -59 -37 -10 c-20 -6 -38 -9 -40 -7 -7 7
10 35 18 30 5 -3 8 -2 7 3 -4 13 34 103 43 103 5 0 9 -27 9 -60z m0 -96 c0
-12 -6 -15 -21 -11 -20 5 -20 5 -2 -15 l18 -21 -27 18 c-42 26 -38 32 25 44 4
0 7 -6 7 -15z m1902 4 c54 -16 125 -82 168 -155 l35 -59 28 14 c41 21 102 26
135 13 62 -26 94 -139 72 -256 -12 -62 -31 -93 -25 -40 3 30 -8 39 -32 26 -22
-11 -55 -66 -46 -75 3 -3 2 -6 -4 -6 -13 0 -33 -76 -33 -127 0 -21 -9 -56 -20
-77 -10 -22 -17 -44 -13 -50 3 -6 3 -8 -1 -4 -4 3 -35 -11 -68 -32 -108 -70
-224 -99 -279 -70 -19 11 -18 13 15 53 19 23 38 55 41 70 8 31 -10 61 -32 53
-8 -4 -11 -1 -8 5 8 13 -25 40 -42 34 -7 -2 -15 1 -19 7 -5 7 -2 8 6 3 9 -6
11 -4 5 4 -4 7 -16 11 -26 8 -11 -3 -17 -1 -13 4 3 5 -10 24 -29 41 -33 31
-35 37 -42 123 -4 49 -10 98 -14 109 -5 13 6 46 36 105 29 58 51 121 66 189
l22 102 39 0 c21 0 57 -5 78 -12z m-1962 -32 c0 -2 -7 -7 -16 -10 -8 -3 -12
-2 -9 4 6 10 25 14 25 6z m-40 -32 c0 -8 -19 -13 -24 -6 -3 5 1 9 9 9 8 0 15
-2 15 -3z m100 -46 c0 -15 -5 -30 -11 -34 -8 -5 -8 -8 0 -13 14 -9 54 -169 45
-183 -4 -7 -3 -8 4 -4 7 4 12 1 12 -8 0 -9 9 -30 19 -47 15 -24 17 -37 10 -51
-13 -24 -29 -14 -29 18 0 13 -4 24 -9 24 -5 0 -7 -8 -5 -18 3 -9 1 -28 -5 -42
-7 -18 -10 -20 -10 -7 -1 9 -6 17 -12 17 -22 0 19 -146 68 -243 21 -43 22 -49
8 -63 -8 -9 -15 -13 -15 -11 0 3 -32 -6 -72 -19 -119 -41 -179 -35 -232 20
-39 42 -51 84 -43 152 6 60 -9 107 -50 151 -43 45 -56 35 -63 -45 l-5 -57 -18
50 c-27 74 -33 189 -14 256 30 100 83 135 163 104 38 -14 44 -20 39 -38 -3
-12 3 -5 13 16 9 21 21 35 25 31 5 -5 5 -1 1 9 -8 21 -4 21 31 3 l27 -14 -34
-7 c-28 -7 -30 -9 -13 -15 38 -14 105 -19 98 -7 -4 6 -1 8 8 5 8 -3 23 0 34 8
10 8 15 14 11 14 -5 0 -3 7 4 15 8 10 10 29 7 53 -5 25 -3 32 3 22 5 -8 10
-27 10 -42z m-130 22 c0 -5 -7 -7 -15 -4 -8 4 -15 8 -15 10 0 2 7 4 15 4 8 0
15 -4 15 -10z m-20 -37 c0 -13 -3 -13 -15 -3 -8 7 -12 16 -9 21 8 13 24 1 24
-18z m33 -50 c-7 -2 -19 -2 -25 0 -7 3 -2 5 12 5 14 0 19 -2 13 -5z m2501 -52
c79 -36 143 -93 181 -163 25 -46 29 -64 29 -128 0 -41 -2 -82 -5 -90 -6 -21
-41 -60 -53 -60 -5 0 1 11 13 24 33 35 38 94 11 129 -29 37 -90 67 -151 74
l-50 6 6 38 c9 49 -11 141 -36 173 -26 33 -23 32 55 -3z m-720 -363 c1 -154
-4 -192 -21 -175 -3 4 -14 83 -24 175 l-17 167 21 23 21 23 9 -23 c5 -13 10
-98 11 -190z m-55 -8 c16 -196 17 -190 -20 -190 -40 0 -85 45 -95 95 -9 48 9
148 33 184 9 14 16 32 15 40 -2 7 1 10 6 7 5 -3 16 1 23 10 20 24 25 3 38
-146z m-1476 87 c-2 -4 -12 -3 -22 3 -10 5 -21 6 -25 3 -8 -8 -8 21 0 42 6 14
10 12 29 -12 13 -15 21 -31 18 -36z m2354 38 c48 -20 83 -59 83 -93 0 -36 -39
-96 -65 -100 -28 -3 -101 41 -96 59 3 8 5 30 5 49 1 28 -5 38 -31 55 -18 11
-32 28 -33 39 0 17 5 18 52 12 28 -4 66 -13 85 -21z m-2440 -7 c-3 -8 -6 -5
-6 6 -1 11 2 17 5 13 3 -3 4 -12 1 -19z m40 -45 c5 3 15 2 23 -4 11 -6 5 -8
-18 -5 -22 2 -35 -2 -42 -13 -13 -23 -12 -4 1 21 8 15 13 17 19 8 4 -7 12 -10
17 -7z m2308 -7 c18 -27 5 -76 -20 -76 -8 0 -15 -5 -15 -12 0 -6 -3 -9 -6 -5
-8 8 11 40 22 35 4 -1 9 12 10 30 2 30 -5 36 -33 33 -7 -1 -13 2 -13 6 0 19
41 10 55 -11z m-2862 -6 c3 -10 -1 -24 -8 -30 -9 -8 -12 -5 -10 12 5 46 9 50
18 18z m636 1 c8 -15 7 -20 -5 -25 -24 -9 -26 -8 -13 16 10 18 9 20 -5 15 -10
-4 -15 -3 -11 3 10 15 23 12 34 -9z m7 -154 c1 -67 3 -137 4 -155 2 -23 -3
-37 -16 -47 -29 -22 -40 -18 -14 5 19 16 21 25 15 57 -4 21 -9 68 -10 104 -1
36 -6 75 -9 87 -4 12 -3 22 2 22 6 0 9 8 7 18 -1 9 0 20 2 25 13 23 18 -6 19
-116z m2164 119 c0 -3 -4 -8 -10 -11 -5 -3 -10 -1 -10 4 0 6 5 11 10 11 6 0
10 -2 10 -4z m-2805 -63 c-18 -42 -16 -78 5 -100 11 -13 28 -23 36 -23 11 0
12 -4 4 -19 -15 -28 -13 -36 16 -70 15 -18 39 -33 60 -37 19 -3 34 -9 34 -13
0 -10 -226 -134 -325 -178 -103 -47 -211 -81 -370 -118 -356 -83 -406 -101
-483 -170 -48 -43 -108 -78 -152 -88 -14 -3 -72 -9 -130 -12 -76 -5 -112 -12
-130 -24 -28 -20 -86 -51 -95 -51 -13 0 -2 40 26 88 23 41 46 63 95 94 l64 40
-21 29 c-11 16 -25 29 -30 29 -5 0 -9 8 -10 18 0 11 -2 13 -6 4 -3 -8 -29 -37
-58 -65 -39 -39 -59 -68 -75 -115 -13 -34 -27 -65 -31 -68 -13 -8 -11 164 2
189 22 42 142 198 159 207 12 6 57 5 131 -5 225 -30 230 -28 516 151 194 122
358 212 432 239 24 8 82 21 129 29 48 8 110 23 137 34 64 26 79 27 70 5z
m2782 -4 c-1 -11 -9 -25 -19 -30 -10 -5 -15 -16 -11 -25 5 -12 9 -10 23 10 9
15 21 23 25 19 5 -5 3 0 -4 10 -9 11 -10 17 -2 17 14 0 47 -67 38 -76 -12 -12
-39 6 -33 22 3 9 2 12 -5 9 -6 -4 -8 -13 -5 -21 3 -8 -1 -14 -10 -14 -9 0 -12
-5 -8 -12 6 -10 4 -10 -7 0 -7 6 -18 12 -23 12 -6 0 -4 -5 4 -10 10 -6 11 -10
3 -10 -7 0 -13 -4 -13 -10 0 -5 7 -6 17 -3 10 4 14 2 10 -4 -3 -5 -21 -10 -39
-10 -18 0 -25 2 -15 4 9 3 17 9 17 14 0 6 -6 7 -12 3 -7 -4 -5 2 5 13 9 11 17
26 17 34 0 14 36 79 44 79 3 0 4 -9 3 -21z m136 -24 c48 -24 110 -42 178 -55
173 -31 235 -62 564 -280 200 -132 258 -164 316 -175 19 -3 96 3 173 15 77 11
148 18 158 15 9 -4 51 -53 93 -109 55 -76 77 -116 85 -152 13 -67 17 -142 7
-146 -5 -2 -20 24 -34 57 -36 86 -55 107 -109 126 -42 14 -49 20 -46 40 2 19
0 21 -8 9 -5 -8 -10 -22 -10 -30 0 -8 -4 -21 -9 -29 -8 -13 -12 -13 -28 0 -17
13 -17 13 -3 -5 8 -10 45 -39 82 -63 37 -24 79 -58 93 -74 26 -32 42 -75 31
-86 -3 -3 -34 9 -68 27 -58 31 -71 34 -168 36 -58 2 -120 8 -139 13 -27 8 -47
6 -100 -10 -122 -38 -296 -100 -321 -115 -30 -18 -21 -15 115 36 162 62 257
85 306 74 l41 -9 -82 -59 c-126 -90 -306 -249 -626 -553 -78 -74 -171 -155
-208 -180 -65 -46 -66 -46 -108 -34 -23 7 -89 37 -146 67 -109 56 -156 69 -57
16 118 -64 279 -126 273 -104 -2 5 25 30 60 56 66 49 134 111 367 336 172 166
333 306 447 388 l86 62 71 0 71 0 -37 -74 c-20 -41 -41 -72 -46 -69 -6 3 -7 2
-4 -4 8 -13 -67 -165 -78 -156 -4 5 -5 2 -1 -5 4 -7 4 -18 -2 -25 -15 -20
-195 -373 -184 -362 14 14 121 215 252 473 120 235 127 244 175 208 16 -12 19
-26 17 -112 0 -55 -4 -130 -7 -169 -4 -50 -3 -66 4 -55 6 8 11 25 11 37 0 12
3 28 6 37 5 13 8 14 20 1 13 -13 13 -18 0 -43 -8 -16 -13 -32 -10 -35 3 -3 1
-22 -5 -43 -6 -21 -6 -33 -1 -28 5 5 11 25 12 44 2 19 6 37 10 40 4 3 14 42
23 85 9 44 19 97 24 118 8 38 5 41 -37 40 -10 -1 -10 2 0 15 11 13 10 15 -5 9
-11 -4 -16 -3 -12 3 3 6 21 10 40 10 40 0 45 6 34 45 -13 45 -63 100 -124 135
-64 37 -72 60 -20 60 115 0 195 -232 195 -566 0 -217 -33 -380 -114 -563 -72
-165 -196 -327 -312 -411 l-49 -35 29 49 c15 26 26 49 24 51 -2 2 -19 -24 -37
-58 -69 -128 -202 -277 -247 -277 -21 0 -18 11 30 128 77 188 95 287 62 351
-32 61 -133 127 -282 185 -100 39 -290 89 -308 82 -6 -2 -4 -5 5 -5 8 -1 74
-17 145 -36 142 -39 352 -134 394 -180 l25 -26 -29 11 c-60 22 -141 -14 -215
-97 -70 -78 -123 -160 -231 -353 -95 -170 -173 -295 -229 -365 -116 -145 -279
-273 -418 -327 -78 -30 -183 -48 -183 -32 0 5 32 41 71 79 38 39 88 96 110
129 53 79 53 124 -2 282 -72 209 -274 682 -286 670 -3 -2 8 -28 23 -58 90
-178 294 -698 294 -750 0 -5 -14 2 -30 16 -39 32 -139 63 -232 72 -152 13
-383 -33 -568 -113 -135 -58 -205 -99 -426 -249 -291 -197 -403 -243 -610
-251 -237 -10 -434 57 -660 225 -183 135 -307 323 -415 627 -144 406 -181 489
-260 579 -23 26 -58 56 -78 67 l-36 20 110 -5 c165 -8 402 -69 630 -162 61
-25 117 -47 125 -51 8 -3 6 1 -5 9 -22 16 -247 108 -264 108 -54 0 100 69 289
129 83 26 698 181 720 181 5 0 24 -33 43 -72 40 -82 97 -162 124 -172 12 -5 7
5 -13 26 -39 41 -80 105 -110 175 l-23 52 47 14 c161 49 343 131 501 226 46
28 87 51 91 51 4 0 15 9 25 20 10 11 22 20 27 20 4 0 8 -35 8 -77 0 -82 -35
-217 -53 -206 -6 3 -7 2 -4 -4 6 -9 -46 -148 -93 -248 -10 -22 -32 -74 -50
-115 -17 -41 -43 -101 -57 -132 -15 -32 -24 -60 -21 -63 2 -3 15 17 28 45 13
27 26 47 30 45 3 -2 6 6 6 18 0 12 33 96 73 187 39 91 76 174 81 185 24 56
110 286 121 325 7 25 15 47 19 50 5 5 6 10 9 56 0 14 5 22 11 19 6 -4 9 -1
8 7 -2 7 3 12 10 10 8 -1 11 2 8 6 -3 5 3 19 13 30 l18 21 35 -37 c19 -20 51
-60 71 -88 29 -41 34 -53 24 -65 -7 -8 -8 -11 -3 -6 11 8 32 10 24 1 -3 -3 4
-16 16 -28 22 -25 92 -156 89 -167 -1 -4 7 -15 18 -25 18 -16 19 -16 13 -1 -4
11 1 27 12 40 18 22 18 22 -1 5 -18 -17 -20 -15 -58 55 -22 40 -40 77 -40 84
0 7 -5 9 -10 6 -5 -3 -8 0 -5 8 3 8 11 14 18 14 7 0 15 7 17 15 4 12 3 12 -5
1 -7 -10 -11 -10 -17 -1 -4 6 -13 9 -20 6 -9 -3 -24 13 -41 42 -15 26 -34 56
-43 66 -15 18 -15 18 7 7 24 -13 29 -3 10 18 -11 11 -9 12 10 6 13 -4 22 -2
22 5 0 20 -30 23 -50 5 -12 -11 -20 -13 -20 -7 0 7 4 12 8 12 4 0 8 18 8 40 0
24 -3 35 -7 28 -4 -7 -11 -10 -14 -6 -4 3 1 18 11 33 14 21 15 28 4 38 -9 8
-11 9 -6 0 8 -14 -3 -45 -14 -38 -5 3 -12 0 -16 -6 -5 -8 -3 -9 7 -4 8 5 6 -1
-5 -13 -15 -17 -16 -25 -7 -36 8 -10 9 -16 1 -21 -6 -4 -9 -1 -8 6 2 7 -2 13
-9 14 -15 0 -30 15 -15 15 7 0 12 6 12 13 0 7 8 22 18 33 10 10 18 21 19 24 4
50 45 65 136 50 49 -8 187 -57 187 -67 0 -7 -35 2 -43 12 -5 6 -7 4 -4 -5 2
-8 16 -15 34 -16 43 -2 50 -8 48 -46 -2 -30 1 -33 26 -34 16 -1 26 2 24 6 -10
16 12 19 31 5 18 -15 18 -15 -1 -9 -15 4 -17 3 -6 -4 8 -6 11 -17 8 -26 -3 -8
-1 -18 5 -22 6 -4 8 -3 4 4 -3 6 -2 13 4 17 6 4 8 11 5 16 -4 5 -1 9 6 9 8 0
8 4 -1 15 -15 18 -7 19 22 4 11 -6 18 -7 15 -2 -4 5 0 10 8 10 8 0 15 -4 15
-9 0 -4 5 -8 11 -8 8 0 8 5 -1 15 -8 10 -9 15 -2 15 14 0 34 -35 25 -43 -3 -4
-15 -1 -26 4 -15 8 -22 8 -28 -2 -7 -12 -9 -12 -9 0 0 8 -3 11 -7 7 -5 -4 -7
-11 -6 -14 1 -4 -3 -12 -8 -19 -7 -8 -5 -11 8 -8 22 3 65 -34 56 -48 -3 -6 -2
-7 4 -4 25 16 180 -188 246 -325 56 -117 74 -171 58 -176 -7 -2 -4 -10 8 -20
11 -10 24 -37 29 -62 6 -25 10 -36 11 -25 1 24 -29 131 -58 203 -11 28 -18 52
-15 52 4 0 2 6 -4 13 -6 7 -25 39 -42 71 -31 61 -33 93 -4 82 12 -4 15 -2 11
9 -8 20 9 28 30 15 16 -9 15 -10 -4 -5 -13 4 -23 4 -23 0 0 -3 10 -10 23 -15
22 -9 22 -9 1 -9 -12 -1 -27 -8 -34 -16 -23 -28 -3 -27 45 0 40 24 44 29 33
44 -12 14 -11 14 4 3 14 -12 22 -11 47 4 16 10 27 22 24 27 -3 6 -1 7 5 3 6
-3 35 8 64 25 207 122 333 193 468 261 85 43 150 78 144 78 -6 0 -87 -38 -179
-85 -93 -47 -170 -85 -172 -85 -1 0 -10 15 -18 33 -8 17 -13 24 -10 14 22 -78
22 -77 -55 -47 -28 11 -56 17 -62 14 -7 -4 -8 -2 -4 4 14 24 -315 107 -464
118 -136 9 -141 11 -185 72 -55 76 -157 167 -224 199 -45 23 -70 28 -127 28
l-70 0 28 39 c37 52 75 173 81 266 3 41 6 76 6 78 1 1 16 3 34 3 l32 2 -35 6
c-35 6 -35 6 -38 64 l-3 58 21 -21 c67 -67 198 -89 290 -49 l49 21 27 -21 c32
-25 90 -28 122 -5 21 14 28 12 140 -49 289 -159 360 -187 671 -263 315 -77
339 -86 426 -159 79 -67 113 -90 122 -82 3 3 -9 12 -25 21 -16 8 -54 37 -83
64 -86 78 -116 90 -431 167 -299 72 -387 107 -668 260 -58 31 -113 64 -123 73
-16 14 -15 16 19 28 47 16 66 41 60 82 -3 22 -1 32 8 32 7 0 25 9 40 21 20 15
26 29 26 58 0 20 -5 42 -11 48 -9 9 -5 33 6 33 1 0 37 -16 78 -35z m-2833 21
c0 -2 -8 -10 -17 -17 -16 -13 -17 -12 -4 4 13 16 21 21 21 13z m517 -30 c-1
-19 -6 -31 -10 -27 -7 7 0 61 8 61 2 0 3 -15 2 -34z m-33 -18 c12 -24 13 -34
5 -42 -9 -8 -10 -7 -5 2 4 7 4 18 -2 25 -11 14 -23 47 -17 47 2 0 11 -14 19
-32z m2788 4 c-7 -2 -12 -9 -12 -16 0 -16 -48 -61 -56 -53 -4 4 11 26 32 49
21 24 41 39 43 34 2 -6 -1 -12 -7 -14z m-3297 -31 c3 -5 2 -12 -3 -15 -5 -3
-9 1 -9 9 0 17 3 19 12 6z m55 -18 c0 -10 -4 -14 -8 -8 -4 6 -11 13 -16 18 -5
4 -2 7 7 7 10 0 17 -8 17 -17z m2703 -2 c-4 -3 -11 -10 -15 -15 -4 -4 -6 1 -5
12 1 12 6 18 15 15 7 -3 10 -9 5 -12z m-2213 -34 c0 -4 -6 -2 -14 5 -8 7 -12
17 -9 22 5 8 23 -12 23 -27z m1694 3 c-6 -6 -10 -3 -10 10 0 13 4 16 10 10 7
-7 7 -13 0 -20z m34 5 c-3 -3 -9 2 -12 12 -6 14 -5 15 5 6 7 -7 10 -15 7 -18z
m-2194 7 c3 -5 -1 -9 -9 -9 -8 0 -12 4 -9 9 3 4 7 8 9 8 2 0 6 -4 9 -8z m2060
-8 c3 -8 2 -13 -3 -9 -5 3 -12 -8 -16 -25 -4 -16 -10 -32 -15 -35 -5 -3 -2 15
6 40 18 50 19 52 28 29z m506 -22 c0 -5 -7 -9 -15 -9 -8 0 -12 4 -9 9 3 4 9 8
15 8 5 0 9 -4 9 -8z m41 -11 c7 -36 6 -60 -1 -56 -5 3 -16 -5 -24 -17 -9 -12
-16 -18 -16 -12 0 5 5 15 12 22 15 15 22 56 8 47 -5 -3 -10 3 -10 14 0 14 5
19 15 15 8 -4 16 -9 16 -13z m-2586 0 c-9 -8 -36 -10 -30 -2 2 4 11 8 20 8 8
0 13 -3 10 -6z m80 -12 c-4 -5 -12 -9 -18 -8 -9 0 -8 2 1 6 6 2 9 10 6 15 -4
7 -2 8 5 4 6 -4 9 -12 6 -17z m20 -39 c-5 -8 -11 -8 -17 -2 -6 6 -7 16 -3 22
5 8 11 8 17 2 6 -6 7 -16 3 -22z m45 16 c0 -2 -7 -7 -16 -10 -8 -3 -12 -2 -9
4 6 10 25 14 25 6z m197 -2 c-3 -3 -12 -4 -19 -1 -8 3 -5 6 6 6 11 1 17 -2 13
-5z m2148 -14 c-3 -5 -12 -10 -18 -10 -7 0 -6 4 3 10 19 12 23 12 15 0z m-437
-49 c18 -19 33 -26 41 -21 10 5 10 9 2 13 -8 4 -8 5 0 3 7 -1 14 -13 16 -27 2
-17 0 -20 -6 -10 -5 7 -13 11 -19 7 -5 -3 -26 10 -46 29 -21 19 -33 35 -27 35
5 0 23 -13 39 -29z m406 20 c3 -4 -4 -17 -17 -27 -22 -19 -22 -19 -4 2 9 11
14 24 10 27 -3 4 -4 7 0 7 3 0 8 -4 11 -9z m-2177 -7 c-3 -3 -12 -4 -19 -1 -8
3 -5 6 6 6 11 1 17 -2 13 -5z m393 -118 c36 -19 100 -48 142 -65 100 -39 230
-105 338 -170 77 -46 86 -49 105 -36 128 92 253 158 420 220 121 45 185 76
248 121 40 29 47 31 47 16 0 -27 -48 -68 -131 -112 -41 -22 -70 -40 -66 -40
13 0 120 57 156 84 19 14 38 26 43 26 4 0 6 -47 3 -104 -6 -128 -31 -213 -86
-295 -40 -60 -113 -129 -130 -124 -5 2 -9 -2 -9 -8 0 -6 -7 -8 -16 -5 -8 3
-12 2 -9 -4 3 -5 -4 -14 -15 -20 -13 -7 -20 -7 -20 0 0 5 4 10 8 10 5 0 9 6 9
13 0 6 3 23 7 37 5 18 1 16 -13 -10 -11 -19 -25 -45 -30 -58 -6 -13 -17 -22
-23 -21 -7 1 -26 -3 -43 -10 -22 -9 -70 -11 -174 -7 -155 7 -201 13 -180 27
25 15 -38 21 -97 9 -82 -17 -277 -22 -286 -7 -6 9 -8 9 -8 0 0 -16 37 -36 42
-23 2 6 8 2 15 -9 11 -18 10 -19 -19 -10 -46 13 -79 53 -114 136 -13 32 -24
51 -24 43 0 -8 9 -35 20 -59 11 -24 19 -46 17 -48 -2 -2 -30 10 -63 27 -69 35
-70 35 -53 13 7 -10 -13 9 -44 42 -70 72 -123 176 -137 265 -11 72 -14 210 -4
210 4 0 27 -15 53 -33 50 -37 82 -56 66 -40 -5 5 -34 26 -62 47 -39 28 -53 44
-53 62 0 23 1 23 53 -16 28 -22 81 -55 117 -74z m-433 78 c-7 -7 -37 7 -37 17
0 6 9 5 21 -1 11 -7 19 -14 16 -16z m2113 16 c0 -5 -10 -15 -22 -21 l-23 -12
20 21 c23 24 25 25 25 12z m-1943 -11 c-25 -14 -133 -24 -140 -13 -3 5 14 8
36 6 23 -2 53 1 67 7 35 14 61 14 37 0z m66 -70 c-5 -5 -4 -55 3 -117 13 -110
42 -204 83 -261 12 -16 21 -31 21 -34 0 -3 -17 -8 -37 -12 -69 -12 -161 -77
-225 -157 -26 -33 -29 -42 -17 -50 11 -8 10 -9 -3 -4 -17 5 -57 -42 -100 -118
-9 -17 -17 -26 -18 -20 0 7 -7 11 -16 10 -9 0 -19 5 -21 12 -3 6 0 12 7 12 6
0 8 -4 5 -10 -3 -5 -2 -10 3 -10 10 0 55 40 50 45 -13 13 -567 -98 -620 -124
-61 -30 -65 -14 -20 83 23 47 39 86 36 86 -3 0 -23 -38 -46 -85 -23 -48 -46
-84 -52 -81 -147 64 -547 251 -653 306 l-143 74 29 13 c15 8 55 36 87 64 73
61 124 81 344 131 340 77 451 116 680 242 l135 73 22 -23 c29 -32 108 -34 146
-4 20 16 30 18 52 10 42 -16 174 -11 225 8 l45 18 3 -34 c2 -19 -1 -39 -5 -43z
m1822 51 c3 -5 -1 -10 -10 -10 -9 0 -13 5 -10 10 3 6 8 10 10 10 2 0 7 -4 10
-10z m-2245 -10 c8 -5 11 -10 5 -10 -5 0 -17 5 -25 10 -8 5 -10 10 -5 10 6 0
17 -5 25 -10z m2181 -14 c-18 -5 -48 -5 -73 0 -40 9 -38 10 31 9 60 0 68 -2
42 -9z m-3785 -351 c2 -12 -1 -12 -20 0 -13 8 -25 14 -27 13 -2 -2 2 3 10 10
16 13 33 3 37 -23z m-62 -3 c3 -5 -1 -9 -9 -9 -8 0 -12 4 -9 9 3 4 7 8 9 8 2
0 6 -4 9 -8z m-28 -55 c-3 -25 -44 -87 -57 -87 -9 0 9 59 24 77 5 7 13 10 18
7 5 -3 6 2 3 10 -3 9 -2 16 4 16 6 0 9 -10 8 -23z m2244 -57 c0 -5 -4 -10 -9
-10 -6 0 -13 5 -16 10 -3 6 1 10 9 10 9 0 16 -4 16 -10z m1311 -9 c-38 -20
-49 -58 -22 -78 14 -11 13 -15 -5 -12 -4 0 -10 -5 -14 -12 -5 -6 -7 13 -5 43
3 69 8 78 48 78 l32 -1 -34 -18z m122 10 c38 -2 14 -18 -26 -18 -28 0 -44 5
-44 13 0 7 10 11 26 9 14 -2 34 -4 44 -4z m-1498 -11 c-18 -8 -18 -9 5 -10 14
-1 19 -4 12 -7 -18 -7 -44 5 -37 17 3 5 14 10 23 9 14 0 13 -2 -3 -9z m1546
-14 c5 3 9 0 9 -6 0 -6 6 -8 13 -4 6 4 3 -2 -7 -15 -11 -12 -25 -20 -32 -17
-6 2 -18 -1 -25 -7 -11 -10 -11 -9 0 5 10 14 9 18 -6 26 -10 5 -24 7 -32 4 -8
-3 -11 0 -7 7 4 6 18 8 31 5 13 -3 26 0 31 7 6 10 9 10 12 1 2 -7 8 -10 13 -6z
m-1432 -34 c19 -14 21 -21 11 -27 -8 -5 -11 -4 -6 3 4 6 -6 18 -24 27 -16 8
-30 20 -30 26 0 6 4 6 13 -1 6 -5 23 -18 36 -28z m-1825 -33 c67 -33 123 -62
125 -64 1 -2 0 -9 -4 -15 -5 -8 -12 -5 -21 7 -10 11 -9 5 3 -17 9 -19 16 -38
16 -41 -3 -9 37 -4 45 7 4 5 5 8 3 7 -2 -2 -11 3 -19 10 -13 9 -14 9 -8 0 4
-7 3 -13 -3 -13 -18 0 -23 20 -7 26 9 3 13 11 9 16 -3 6 7 4 23 -5 16 -9 139
-65 274 -124 135 -59 305 -138 378 -175 74 -37 139 -65 144 -61 6 3 8 1 5 -4
-9 -14 61 -56 75 -47 7 4 8 2 4 -4 -4 -7 -4 -12 1 -12 4 0 39 -20 76 -43 l68
-43 -36 -46 c-21 -29 -31 -49 -25 -53 6 -4 17 -2 24 4 7 6 17 7 21 3 5 -4 5
-1 1 6 -4 6 -2 12 3 12 6 0 11 5 11 11 0 8 -5 8 -15 -1 -8 -7 -15 -8 -15 -2 0
15 26 33 35 24 5 -4 5 -1 1 6 -8 14 24 65 63 101 14 13 19 19 11 15 -8 -5 0
11 18 34 19 23 38 40 42 37 5 -3 12 0 16 6 4 8 3 9 -4 5 -28 -17 -7 12 55 75
37 38 73 69 80 69 7 0 13 4 13 10 0 15 79 62 92 54 6 -4 8 -3 5 3 -4 6 0 14 9
17 10 4 13 2 9 -7 -4 -6 0 -4 8 5 18 23 61 38 100 37 l32 -2 -35 -7 -35 -7 45
-3 c29 -2 36 -4 20 -7 -34 -6 -90 -32 -90 -42 0 -5 -3 -23 -7 -41 -5 -27 -3
-32 9 -28 11 5 13 -1 10 -26 -3 -17 -10 -35 -16 -39 -7 -6 -6 -7 4 -4 8 2 16
15 18 30 2 14 10 31 19 39 15 12 15 11 2 -9 -12 -20 -11 -25 4 -40 15 -14 18
-15 16 -3 -3 18 21 70 32 70 4 0 15 -10 24 -22 l16 -23 -5 28 c-3 17 0 27 7
27 8 0 7 3 -2 9 -17 11 -4 34 16 27 9 -4 11 -2 7 6 -5 7 0 9 14 6 12 -4 20 -3
17 2 -8 14 44 8 56 -6 6 -8 8 -14 4 -14 -4 0 7 -14 24 -32 17 -18 29 -38 26
-46 -2 -7 0 -10 5 -7 6 3 10 -1 10 -9 0 -17 -39 -48 -51 -40 -17 10 -50 -17
-48 -39 3 -33 -10 -56 -29 -50 -12 3 -14 2 -4 -4 10 -8 10 -15 -1 -36 -8 -15
-17 -24 -20 -21 -3 3 -4 -8 -2 -25 3 -22 -1 -34 -12 -38 -14 -5 -14 -7 0 -15
9 -5 14 -15 11 -23 -4 -8 -11 -12 -17 -8 -5 3 -7 1 -4 -4 4 -6 2 -25 -4 -42
-10 -27 -13 -30 -28 -19 -14 12 -14 11 -3 -4 12 -15 11 -27 -7 -81 l-21 -63
-68 -15 c-37 -7 -71 -14 -77 -14 -5 0 -23 -6 -40 -12 -16 -7 -50 -17 -75 -23
-71 -18 -268 -89 -345 -124 l-70 -33 -100 29 c-245 70 -430 87 -509 48 -55
-27 -92 -79 -119 -165 -18 -57 -22 -92 -21 -195 1 -106 6 -145 33 -254 22 -87
29 -132 22 -139 -17 -17 -97 21 -157 75 -135 124 -213 276 -342 663 -80 239
-95 276 -116 295 -26 20 -19 28 32 36 26 4 39 10 30 12 -32 7 -123 -27 -150
-55 -57 -59 -83 -187 -68 -328 5 -44 12 -114 15 -155 l6 -75 -31 35 c-43 48
-114 197 -145 304 -31 107 -55 286 -55 404 0 180 52 504 81 510 14 2 16 -10
18 -80 3 -104 11 -117 11 -17 0 81 12 108 39 86 10 -8 13 -8 8 0 -11 17 67 75
81 61 9 -9 12 -8 12 6 0 15 9 17 73 14 50 -2 74 -7 74 -15 0 -10 -4 -10 -16
-1 -9 6 23 -28 70 -78 47 -49 108 -113 135 -142 27 -30 58 -59 69 -64 15 -8
13 -3 -8 19 -15 16 -26 31 -25 34 2 2 1 3 -1 2 -2 -2 -10 2 -17 8 -11 9 -10
14 8 28 16 14 18 20 8 26 -8 5 -11 4 -6 -3 10 -17 -29 -35 -43 -18 -6 7 -7 17
-3 21 4 5 1 5 -6 1 -9 -6 -12 -1 -9 16 2 12 2 17 0 11 -3 -7 -8 -13 -13 -13
-5 0 -7 6 -4 14 3 7 -3 16 -13 20 -15 6 -15 9 -3 17 12 9 10 10 -7 6 -12 -3
-30 2 -40 10 -17 14 -17 14 1 5 10 -5 27 -7 36 -5 10 3 29 0 41 -7 20 -9 21
-9 8 2 -9 7 -14 19 -12 26 3 7 -4 12 -16 12 -12 0 -21 6 -21 14 0 9 7 12 20 9
27 -7 25 -2 -12 33 -17 16 -28 24 -24 17 3 -6 2 -14 -4 -18 -6 -4 -8 -10 -5
-15 3 -5 1 -11 -4 -15 -6 -3 -8 3 -6 15 2 11 -1 20 -7 20 -14 0 22 29 36 30 5
0 64 -27 130 -61z m3432 -84 c-2 -7 5 -16 17 -20 14 -4 17 -8 10 -12 -17 -6
-17 -24 0 -17 7 2 22 -5 33 -17 10 -13 13 -19 5 -14 -9 5 -12 3 -9 -6 3 -8 11
-13 17 -12 10 3 15 -10 12 -30 -1 -5 3 -6 8 -2 6 3 15 -3 20 -14 8 -14 7 -22
-6 -32 -15 -12 -16 -12 -10 3 3 10 2 20 -4 23 -5 4 -9 3 -8 -2 1 -4 1 -14 0
-21 -2 -23 -76 5 -126 49 -11 10 -24 19 -30 20 -26 5 -68 28 -53 29 9 0 18 3
21 8 2 4 2 2 1 -5 -3 -11 16 -23 46 -29 8 -2 20 -11 27 -20 9 -13 13 -14 13
-4 0 7 -7 22 -17 32 -9 10 -12 18 -7 18 16 0 46 -41 40 -55 -2 -7 1 -16 8 -18
10 -4 12 1 8 15 -3 14 -1 19 6 14 7 -4 12 -2 12 4 0 6 5 8 11 4 8 -4 7 -9 -2
-15 -7 -4 -10 -12 -5 -16 5 -4 11 -2 13 5 3 6 9 9 15 6 5 -4 3 5 -6 19 -11 16
-23 23 -35 20 -9 -2 -23 3 -30 11 -15 18 -1 22 16 5 7 -7 17 -8 28 -1 12 6 14
11 6 16 -6 4 -11 2 -11 -5 0 -8 -4 -8 -15 1 -9 7 -14 19 -11 27 7 16 -6 17
-22 1 -7 -7 -12 -9 -12 -5 0 4 -9 -2 -20 -13 -11 -11 -26 -20 -32 -19 -7 0 -3
5 9 11 17 8 22 17 18 36 -4 23 -3 23 14 7 13 -11 21 -13 26 -6 3 6 -1 14 -9
17 -9 3 -13 11 -9 17 4 7 0 8 -12 3 -15 -5 -16 -4 -5 9 11 13 10 14 -6 9 -10
-4 -16 -3 -12 1 5 5 -5 16 -22 26 -21 13 -28 23 -23 35 4 12 3 15 -5 10 -7 -4
-12 -17 -13 -29 0 -12 -3 -16 -6 -9 -3 7 -3 18 0 25 6 17 3 32 -6 29 -5 -1 -6
2 -2 8 9 14 147 -109 141 -125z m-3615 108 c7 -10 9 -15 5 -11 -5 4 -15 3 -23
-4 -11 -9 -11 -14 4 -32 13 -15 10 -14 -10 4 -27 23 -27 25 -7 32 11 4 20 10
20 14 0 3 -7 3 -16 0 -8 -3 -12 -2 -9 4 9 15 21 12 36 -7z m3386 11 c-3 -3
-12 -4 -19 -1 -8 3 -5 6 6 6 11 1 17 -2 13 -5z m-22 -34 c-3 -5 -10 -10 -16
-10 -5 0 -9 5 -9 10 0 6 7 10 16 10 8 0 12 -4 9 -10z m-3346 -34 c-3 -3 -11 5
-18 17 -13 21 -12 21 5 5 10 -10 16 -20 13 -22z m1916 24 c3 -5 1 -10 -4 -10
-6 0 -11 5 -11 10 0 6 2 10 4 10 3 0 8 -4 11 -10z m1397 -1 c15 -8 27 -8 46 1
22 10 24 9 12 -4 -7 -9 -21 -16 -32 -16 -14 0 -18 -5 -14 -15 4 -13 2 -13 -14
-5 -13 7 -21 7 -26 -2 -4 -7 -3 -8 4 -4 7 4 12 2 12 -4 0 -7 -7 -9 -16 -6 -9
3 -21 6 -27 6 -7 0 -3 7 7 15 11 9 14 15 7 15 -22 0 -41 -26 -28 -39 8 -8 7
-11 -7 -11 -9 0 -15 -4 -11 -9 3 -5 2 -12 -3 -15 -4 -2 -9 10 -10 27 -2 27 4
35 35 54 45 27 40 25 65 12z m-1592 -13 c0 -2 -7 -7 -16 -10 -8 -3 -12 -2 -9
4 6 10 25 14 25 6z m240 -2 c0 -8 -19 -13 -24 -6 -3 5 1 9 9 9 8 0 15 -2 15
-3z m1220 -4 c0 -5 -5 -10 -11 -10 -5 0 -7 5 -4 10 3 6 8 10 11 10 2 0 4 -4 4
-10z m-1070 -4 c0 -2 -8 -10 -17 -17 -16 -13 -17 -12 -4 4 13 16 21 21 21 13z
m934 -4 c3 -5 -1 -9 -9 -9 -8 0 -12 4 -9 9 3 4 7 8 9 8 2 0 6 -4 9 -8z m457
-9 c13 -16 12 -17 -3 -4 -17 13 -22 21 -14 21 2 0 10 -8 17 -17z m-862 -12
c11 -7 5 -11 -22 -16 -20 -4 -37 -11 -37 -15 0 -16 -90 -38 -123 -29 -30 8
-29 8 8 4 28 -3 36 -2 25 5 -9 6 -46 7 -86 4 -40 -4 -74 -2 -77 3 -3 5 21 10
54 11 32 1 71 7 85 12 14 6 30 7 35 4 6 -3 15 -1 22 4 7 6 28 12 47 15 19 2
40 4 45 5 6 1 16 -2 24 -7z m202 -6 l106 0 -9 -28 c-9 -23 -12 -26 -26 -15
-13 11 -14 10 -4 -8 9 -16 8 -21 -3 -21 -7 0 -11 6 -8 14 9 24 -91 49 -134 32
-21 -8 -34 3 -15 14 4 2 1 2 -6 0 -20 -5 -62 8 -62 18 0 5 12 6 28 2 15 -5 75
-8 133 -8z m526 1 c-14 -11 -15 -15 -5 -19 7 -3 3 -6 -9 -6 -33 -1 -37 16 -6
27 38 14 41 14 20 -2z m-1032 -14 c-3 -3 -11 0 -18 7 -9 10 -8 11 6 5 10 -3
15 -9 12 -12z m785 4 c0 -3 -4 -8 -10 -11 -5 -3 -10 -1 -10 4 0 6 5 11 10 11
6 0 10 -2 10 -4z m185 -14 c6 -4 11 -13 13 -19 3 -16 -47 -17 -68 -2 -12 8 -8
10 17 6 26 -3 30 -1 22 10 -12 14 -1 18 16 5z m-1295 -32 c0 -30 -13 -40 -26
-18 -5 7 -3 8 6 3 10 -6 12 -1 8 19 -3 14 -1 26 3 26 5 0 9 -13 9 -30z m57 -2
c-3 -7 -5 -2 -5 12 0 14 2 19 5 13 2 -7 2 -19 0 -25z m240 26 c-3 -3 -12 -4
-19 -1 -8 3 -5 6 6 6 11 1 17 -2 13 -5z m516 -11 c-7 -2 -21 -2 -30 0 -10 3
-4 5 12 5 17 0 24 -2 18 -5z m-489 -28 c-4 -8 -8 -15 -10 -15 -2 0 -4 7 -4 15
0 8 4 15 10 15 5 0 7 -7 4 -15z m59 8 c-7 -2 -21 -2 -30 0 -10 3 -4 5 12 5 17
0 24 -2 18 -5z m747 3 c0 -2 -7 -7 -16 -10 -8 -3 -12 -2 -9 4 6 10 25 14 25 6z
m-834 -22 c-1 -8 -6 -17 -12 -21 -5 -4 -6 -4 -2 1 4 5 3 14 -2 21 -7 8 -5 12
4 12 8 0 13 -6 12 -13z m551 -16 c-3 -8 -6 -5 -6 6 -1 11 2 17 5 13 3 -3 4
-12 1 -19z m-752 2 c3 -5 2 -10 -4 -10 -5 0 -13 5 -16 10 -3 6 -2 10 4 10 5 0
13 -4 16 -10z m1015 7 c0 -2 -10 -12 -21 -23 -22 -19 -22 -19 -8 4 12 19 29
30 29 19z m-1504 -19 c4 -6 3 -8 -2 -5 -6 3 -15 -7 -21 -24 -13 -34 -1 -39 16
-6 8 15 10 16 6 3 -3 -10 2 -27 10 -36 16 -18 5 -37 -14 -26 -5 3 -12 -5 -15
-19 -4 -14 -11 -25 -17 -25 -8 0 -8 4 -1 13 7 8 7 18 2 27 -5 8 -6 18 -3 23 3
5 -1 13 -8 18 -10 6 -11 11 -3 17 6 4 16 17 23 30 13 25 17 27 27 10z m338 3
c3 -4 -6 -6 -19 -3 -14 2 -25 6 -25 8 0 8 39 4 44 -5z m1000 -3 c-3 -4 -9 -8
-15 -8 -5 0 -9 4 -9 8 0 5 7 9 15 9 8 0 12 -4 9 -9z m99 -3 c4 -8 3 -16 -1
-19 -4 -3 -9 4 -9 15 -2 23 3 25 10 4z m-927 -17 c4 -7 3 -8 -4 -4 -7 4 -12 2
-12 -3 0 -6 5 -11 11 -11 5 0 7 -4 4 -10 -4 -6 -11 -5 -20 3 -9 8 -10 16 -3
25 13 15 15 15 24 0z m1595 -5 c13 -16 12 -17 -3 -4 -10 7 -18 15 -18 17 0 8
8 3 21 -13z m-703 -31 c7 7 12 10 12 7 0 -3 -10 -14 -22 -25 -13 -10 -20 -15
-15 -10 4 5 -3 21 -15 35 l-23 26 26 -22 c19 -18 28 -20 37 -11z m895 21 c-7
-2 -19 -2 -25 0 -7 3 -2 5 12 5 14 0 19 -2 13 -5z m-2452 -26 c-13 -13 -26 -3
-16 12 3 6 11 8 17 5 6 -4 6 -10 -1 -17z m1472 16 c3 -5 -1 -13 -8 -20 -10
-10 -14 -9 -18 1 -8 21 15 37 26 19z m-1059 -18 c-5 -11 -2 -14 12 -9 20 8 19
6 -7 -14 -14 -10 -16 -9 -14 10 3 26 3 28 10 28 2 0 2 -7 -1 -15z m276 5 c0
-5 -5 -10 -11 -10 -5 0 -7 5 -4 10 3 6 8 10 11 10 2 0 4 -4 4 -10z m698 -26
c-4 -3 -12 5 -18 18 -12 22 -12 22 6 6 10 -10 15 -20 12 -24z m132 -5 c0 -4
-5 -11 -12 -15 -7 -4 -8 -3 -4 4 4 6 2 22 -4 34 -11 22 -10 22 4 4 9 -11 16
-23 16 -27z m62 18 c-12 -13 -22 -28 -22 -33 0 -6 -7 -11 -15 -11 -11 0 -5 11
17 34 17 18 34 33 37 33 2 0 -5 -10 -17 -23z m718 19 c0 -2 -7 -7 -16 -10 -8
-3 -12 -2 -9 4 6 10 25 14 25 6z m291 -14 c-7 -2 -18 1 -23 6 -8 8 -4 9 13 5
13 -4 18 -8 10 -11z m-2579 -24 c-7 -7 -12 -8 -12 -2 0 6 3 14 7 17 3 4 9 5
12 2 2 -3 -1 -11 -7 -17z m85 -45 c-11 -12 -24 -20 -28 -17 -4 2 -6 -5 -4 -17
3 -14 -9 -33 -37 -62 -23 -23 -37 -35 -30 -26 6 9 9 19 5 22 -3 4 0 7 7 7 7 0
11 3 7 6 -8 8 31 85 52 102 9 8 10 10 2 6 -10 -5 -12 -3 -6 7 22 37 28 40 40
17 10 -19 9 -26 -8 -45z m2021 46 c10 -14 10 -18 -4 -23 -12 -4 -15 -2 -10 9
3 8 1 15 -5 15 -6 0 -7 5 -4 11 4 6 8 9 9 7 1 -2 7 -10 14 -19z m-2075 -20
c-8 -8 -13 -7 -18 2 -6 8 -4 10 5 4 10 -6 12 -4 6 11 -6 15 -5 17 5 7 9 -10
10 -16 2 -24z m647 26 c0 -2 -10 -9 -22 -15 -22 -11 -22 -10 -4 4 21 17 26 19
26 11z m903 -10 c-3 -9 -8 -14 -10 -11 -3 3 -2 9 2 15 9 16 15 13 8 -4z m40
-1 c7 1 9 1 4 -1 -4 -3 -4 -10 -1 -15 4 -6 2 -8 -3 -5 -6 4 -13 -3 -16 -14 -3
-12 -10 -18 -16 -14 -6 3 -8 12 -4 18 8 12 8 15 13 40 1 9 3 9 6 0 3 -7 11
-11 17 -9z m980 9 c-7 -2 -19 -2 -25 0 -7 3 -2 5 12 5 14 0 19 -2 13 -5z
m-2150 -24 c4 -16 3 -18 -9 -8 -7 6 -11 15 -8 20 8 13 11 11 17 -12z m1287 6
c0 -12 -19 -12 -23 0 -4 9 -1 12 9 8 7 -3 14 -7 14 -8z m-2040 -5 c0 -5 -5
-10 -11 -10 -5 0 -7 5 -4 10 3 6 8 10 11 10 2 0 4 -4 4 -10z m37 4 c-3 -3 -12
-4 -19 -1 -8 3 -5 6 6 6 11 1 17 -2 13 -5z m2860 0 c-3 -3 -12 -4 -19 -1 -8 3
-5 6 6 6 11 1 17 -2 13 -5z m-2770 -10 c-3 -3 -12 -4 -19 -1 -8 3 -5 6 6 6 11
1 17 -2 13 -5z m178 -26 c-7 -32 -13 -32 -11 1 0 16 4 27 8 25 4 -2 5 -14 3
-26z m803 -9 c-3 -8 -7 -3 -11 10 -4 17 -3 21 5 13 5 -5 8 -16 6 -23z m1992
11 c6 -11 8 -20 6 -20 -3 0 -10 9 -16 20 -6 11 -8 20 -6 20 3 0 10 -9 16 -20z
m-1420 -11 c0 -6 -4 -7 -10 -4 -5 3 -10 11 -10 16 0 6 5 7 10 4 6 -3 10 -11
10 -16z m-1280 3 c0 -4 -10 -13 -22 -21 -23 -14 -23 -14 -4 8 20 22 26 25 26
13z m1485 -23 c-7 -10 -65 -3 -75 9 -7 8 -7 9 1 3 13 -11 41 -3 34 9 -3 5 6 3
19 -3 13 -7 23 -14 21 -18z m-693 -18 c2 -17 1 -28 -4 -25 -8 5 -12 54 -4 54
2 0 6 -13 8 -29z m1449 6 c-10 -9 -11 -8 -5 6 3 10 9 15 12 12 3 -3 0 -11 -7
-18z m571 5 c9 -9 6 -10 -12 -7 -31 6 -47 22 -20 20 11 -1 26 -7 32 -13z
m-614 -24 c2 -10 8 -16 12 -13 5 3 11 2 14 -3 3 -5 -2 -9 -11 -9 -9 0 -18 9
-21 19 -2 10 -8 16 -12 13 -5 -3 -11 -2 -14 3 -3 5 2 9 11 9 9 0 18 -9 21 -19z
m-1614 -10 c8 -45 5 -67 -9 -62 -17 7 -29 -12 -14 -22 8 -4 9 -3 5 4 -8 14 -4
15 18 6 9 -3 16 -14 16 -24 0 -10 18 -75 41 -145 22 -70 37 -131 32 -135 -10
-9 -271 -74 -298 -74 -11 0 -23 -4 -27 -10 -4 -6 -11 -7 -15 -2 -4 5 -2 11 5
13 6 3 10 9 7 13 -11 18 134 350 156 358 5 2 7 7 5 11 -3 3 5 18 16 31 11 14
16 19 12 11 -5 -9 -3 -12 5 -7 6 4 9 12 5 17 -6 11 13 39 27 39 5 0 11 -10 13
-22z m836 9 c0 -2 -9 -12 -19 -21 -14 -13 -21 -14 -27 -5 -4 7 -3 10 3 6 -4
16 0 23 8 12 14 20 19 20 12z m-1586 -23 c3 -8 2 -12 -4 -9 -6 3 -10 10 -10
16 0 14 7 11 14 -7z m1435 -26 c0 -38 -1 -40 -10 -19 -8 22 -4 61 7 61 2 0 4
-19 3 -42z m-755 20 c-3 -5 -10 -5 -16 -2 -8 5 -9 1 -5 -10 4 -10 3 -15 -3
-11 -17 11 -11 34 9 32 11 0 17 -5 15 -9z m-60 -98 c-15 -27 -31 -50 -35 -50
-5 0 -6 -8 -2 -17 5 -15 3 -16 -7 -6 -9 9 -10 16 -3 25 29 35 56 96 55 123
l-1 30 10 -27 c9 -23 6 -36 -17 -78z m330 88 c-5 -8 -2 -9 9 -5 10 3 17 2 17
-3 0 -6 -9 -10 -20 -10 -20 0 -26 11 -13 23 10 11 15 8 7 -5z m451 2 c-3 -5
-14 -10 -23 -9 -14 0 -13 2 3 9 27 11 27 11 20 0z m124 -6 c4 3 13 0 21 -6 12
-8 12 -9 -2 -4 -11 3 -18 0 -18 -7 0 -8 -4 -6 -10 3 -5 8 -9 20 -9 25 0 6 3 4
6 -3 2 -6 8 -10 12 -8z m1321 -17 c0 -7 -4 -6 -10 3 -8 13 -11 12 -25 -5 -16
-20 -16 -20 -6 1 6 12 7 25 3 29 -4 4 3 2 16 -4 12 -6 22 -17 22 -24z m-399 6
c13 -16 12 -17 -3 -4 -10 7 -18 15 -18 17 0 8 8 3 21 -13z m-1434 -8 c9 -24
-1 -27 -15 -5 -8 13 -8 20 -2 20 6 0 13 -7 17 -15z m373 -1 l35 -14 -35 7
c-19 3 -46 6 -60 5 -23 -1 -23 0 -5 8 25 11 24 11 65 -6z m-183 0 c-3 -3 -12
-4 -19 -1 -8 3 -5 6 6 6 11 1 17 -2 13 -5z m-122 -14 c4 -6 9 -8 13 -6 4 2 25
0 47 -4 35 -8 34 -8 -15 -4 -30 2 -66 4 -79 5 -18 1 -21 3 -10 10 19 12 36 11
44 -1z m218 -7 c-7 -2 -19 -2 -25 0 -7 3 -2 5 12 5 14 0 19 -2 13 -5z m82 -3
c3 -5 0 -10 -7 -11 -11 0 -11 -2 0 -6 10 -4 7 -9 -8 -20 -14 -10 -19 -21 -15
-32 5 -13 4 -13 -6 -4 -10 10 -9 17 7 34 19 22 19 22 -1 16 -18 -7 -19 -6 -3
6 10 8 15 17 11 20 -3 4 -1 7 5 7 6 0 14 -4 17 -10z m-425 -10 c8 -5 11 -10 5
-10 -5 0 -3 -5 5 -10 12 -8 9 -9 -10 -7 -14 2 -26 11 -28 20 -4 19 6 21 28 7z
m-1080 -10 c8 -5 11 -10 5 -10 -5 0 -17 5 -25 10 -8 5 -10 10 -5 10 6 0 17 -5
25 -10z m111 -13 c-10 -9 -11 -8 -5 6 3 10 9 15 12 12 3 -3 0 -11 -7 -18z
m1025 -7 c0 -19 -3 -27 -9 -21 -5 5 -16 7 -25 4 -9 -4 -6 4 9 20 12 15 23 27
24 27 1 0 1 -14 1 -30z m904 26 c0 -3 -4 -8 -10 -11 -5 -3 -10 -1 -10 4 0 6 5
11 10 11 6 0 10 -2 10 -4z m-958 -55 c12 -15 11 -15 -7 -1 -19 14 -19 14 -6
-2 7 -10 17 -15 22 -12 16 10 68 -28 62 -45 -5 -13 -3 -14 7 -4 11 10 17 10
29 -1 16 -14 20 -16 41 -16 6 0 -10 -7 10 -15 0 -9 6 -15 13 -13 7 2 12 -1 12
-7 0 -5 -4 -9 -9 -7 -5 2 -13 -3 -19 -10 -7 -10 -8 -9 -4 4 3 9 -1 24 -9 35
-13 16 -14 15 -9 -13 5 -31 -17 -65 -32 -50 -3 3 0 6 8 7 8 0 -2 7 -21 14 -20
8 -27 14 -17 14 10 1 15 6 12 11 -4 6 -11 8 -16 4 -5 -3 -8 0 -7 8 2 8 -9 14
-32 16 -19 1 -30 -1 -23 -5 11 -8 16 -27 14 -51 0 -7 -13 -17 -27 -22 -14 -6
-23 -14 -19 -19 3 -5 -3 -12 -12 -14 -17 -4 -17 -5 0 -6 10 0 20 6 23 14 4 10
13 13 25 10 11 -4 19 -2 19 5 0 7 8 10 20 7 10 -3 18 0 17 5 -1 6 3 12 9 15 6
2 11 -3 11 -11 0 -9 -24 -22 -61 -34 -34 -11 -68 -23 -77 -27 -13 -5 -15 -1
-12 19 3 14 9 23 14 20 5 -3 9 0 9 5 0 23 -22 9 -32 -20 -10 -30 -20 -32 -24
-4 -1 8 2 15 7 15 5 0 9 7 9 16 0 8 -4 12 -10 9 -13 -8 7 99 30 160 10 26 40
24 62 -4z m443 20 c3 -5 0 -13 -6 -17 -8 -4 -9 -3 -5 4 4 7 2 12 -3 12 -6 0
-11 -5 -11 -12 0 -6 -3 -9 -6 -5 -7 7 4 27 16 27 5 0 11 -4 15 -9z m1127 -30
c3 9 6 8 11 -3 7 -21 -26 -17 -48 6 -25 25 -17 31 9 7 17 -16 25 -19 28 -10z
m156 15 c-7 -8 -15 -12 -17 -11 -5 6 10 25 20 25 5 0 4 -6 -3 -14z m-2793 -5
c-3 -2 1 -11 8 -19 9 -11 4 -11 -15 2 -33 22 -33 22 -8 22 10 0 17 -2 15 -5z
m1215 -26 c0 -2 -6 -5 -13 -8 -8 -3 -14 1 -14 8 0 7 6 11 14 8 7 -3 13 -6 13
-8z m-1155 -4 c3 -5 2 -12 -3 -15 -5 -3 -9 1 -9 9 0 17 3 19 12 6z m1205 5 c0
-2 -7 -7 -16 -10 -8 -3 -12 -2 -9 4 6 10 25 14 25 6z m119 -9 c8 -10 7 -14 -2
-14 -8 0 -14 6 -14 14 0 7 1 13 2 13 2 0 8 -6 14 -13z m-112 -25 c-1 -18 -29
-23 -44 -8 -5 4 -3 7 2 6 21 -5 36 0 30 10 -3 6 -2 10 4 10 5 0 9 -8 8 -18z
m88 -12 c-3 -5 -12 -10 -18 -10 -7 0 -6 4 3 10 19 12 23 12 15 0z m-2755 -142
c17 -28 160 -439 160 -460 0 -8 -132 -50 -226 -71 l-61 -15 -9 92 c-5 50 -9
150 -9 221 0 111 4 137 22 176 42 92 88 113 123 57z m1076 -830 c20 -62 49
-142 64 -177 l27 -63 -44 -44 c-73 -73 -103 -130 -102 -188 l2 -51 6 56 c4 37
15 69 33 95 31 44 106 120 111 113 2 -2 15 -29 29 -60 33 -74 103 -178 179
-268 l61 -73 -26 -62 c-42 -97 -90 -178 -120 -200 -25 -19 -41 -21 -159 -20
-122 0 -139 3 -227 33 -300 102 -560 327 -685 593 -45 96 -68 188 -60 239 7
38 86 158 111 166 5 2 18 -10 27 -27 74 -124 223 -260 287 -260 30 0 126 66
325 223 61 47 113 87 117 87 3 0 23 -51 44 -112z m3858 -17 c140 -117 151
-118 259 -13 69 68 72 58 26 -75 -69 -196 -212 -390 -384 -520 -78 -60 -202
-119 -265 -128 -67 -9 -94 8 -170 112 -35 46 -65 82 -67 79 -3 -2 13 -28 35
-57 l40 -53 -51 -37 c-76 -53 -168 -98 -282 -135 l-100 -33 -7 37 c-12 66 -12
66 66 96 205 78 399 259 551 515 33 55 65 99 70 98 6 -2 25 -25 43 -51 23 -35
32 -61 34 -95 l1 -46 4 42 c5 47 -20 103 -61 142 l-25 24 23 41 c13 22 43 74
66 114 l42 74 21 -20 c12 -10 71 -60 131 -111z m-1254 -463 c0 -5 18 -48 40
-95 22 -47 40 -87 40 -88 0 -2 -20 -13 -43 -24 -26 -13 -57 -40 -76 -66 -31
-44 -77 -82 -86 -73 -2 2 20 79 50 171 30 92 55 175 55 183 0 8 5 12 10 9 6
-3 10 -11 10 -17z m-2119 -266 c41 -30 95 -65 122 -78 49 -25 64 -58 31 -71
-20 -7 -168 29 -256 63 l-66 25 30 70 c28 62 33 68 48 57 10 -7 51 -37 91 -66z
m1106 -142 l-12 -85 -33 -3 -32 -3 0 70 0 70 43 25 c23 14 43 22 44 18 1 -4
-3 -45 -10 -92z m-21 -157 c-4 -27 -17 -118 -30 -203 l-24 -155 -1 203 -1 202
31 0 32 0 -7 -47z m1253 -211 c2 -114 -94 -212 -208 -212 -79 0 -134 56 -112
114 10 24 15 26 66 26 74 0 133 29 193 95 52 58 60 55 61 -23z"/>
<path d="M3618 7119 c-21 -11 -38 -22 -38 -24 0 -5 79 32 89 41 12 11 -18 1
-51 -17z"/>
<path d="M4391 7136 c2 -2 15 -9 29 -15 24 -11 24 -11 6 3 -16 13 -49 24 -35
12z"/>
<path d="M3499 7043 c-13 -16 -12 -17 4 -4 9 7 17 15 17 17 0 8 -8 3 -21 -13z"/>
<path d="M3454 7008 l-19 -23 23 19 c21 18 27 26 19 26 -2 0 -10 -23 -22z"/>
<path d="M3379 6943 c-54 -58 -84 -93 -78 -93 3 0 33 32 68 70 71 80 78 94 10
23z"/>
</g>
</svg>
